<mxfile host="Electron" modified="2023-11-12T21:04:12.425Z" agent="Mozilla/5.0 (Windows NT 10.0; Win64; x64) AppleWebKit/537.36 (KHTML, like Gecko) draw.io/22.0.3 Chrome/114.0.5735.289 Electron/25.8.4 Safari/537.36" etag="rjras-TWEhj4_hYxH4-z" version="22.0.3" type="device">
  <diagram name="Страница — 1" id="I__y4vOzu_03cvRlkmaH">
    <mxGraphModel dx="2449" dy="1263" grid="1" gridSize="10" guides="1" tooltips="1" connect="1" arrows="1" fold="1" page="0" pageScale="1" pageWidth="827" pageHeight="1169" math="0" shadow="0">
      <root>
        <mxCell id="0" />
        <mxCell id="1" parent="0" />
        <mxCell id="zwFqzDqDcPwq69iHsSgv-1" value="&lt;span style=&quot;white-space: pre;&quot;&gt;&#x9;&lt;/span&gt;" style="rounded=0;whiteSpace=wrap;html=1;" vertex="1" parent="1">
          <mxGeometry x="240" y="250" width="290" height="90" as="geometry" />
        </mxCell>
        <mxCell id="zwFqzDqDcPwq69iHsSgv-2" value="Предоставление возможности взаимодействия с хранилищем" style="text;html=1;strokeColor=none;fillColor=none;align=center;verticalAlign=middle;whiteSpace=wrap;rounded=0;" vertex="1" parent="1">
          <mxGeometry x="265" y="280" width="240" height="30" as="geometry" />
        </mxCell>
        <mxCell id="zwFqzDqDcPwq69iHsSgv-3" value="" style="endArrow=classic;html=1;rounded=0;entryX=0;entryY=0.5;entryDx=0;entryDy=0;" edge="1" parent="1" target="zwFqzDqDcPwq69iHsSgv-1">
          <mxGeometry width="50" height="50" relative="1" as="geometry">
            <mxPoint x="10" y="295" as="sourcePoint" />
            <mxPoint x="430" y="300" as="targetPoint" />
          </mxGeometry>
        </mxCell>
        <mxCell id="zwFqzDqDcPwq69iHsSgv-4" value="Запрос на взаимодействие с credentials / пользователями" style="text;html=1;strokeColor=none;fillColor=none;align=center;verticalAlign=middle;whiteSpace=wrap;rounded=0;" vertex="1" parent="1">
          <mxGeometry x="30" y="260" width="180" height="30" as="geometry" />
        </mxCell>
        <mxCell id="zwFqzDqDcPwq69iHsSgv-5" value="" style="endArrow=classic;html=1;rounded=0;exitX=1;exitY=0.5;exitDx=0;exitDy=0;" edge="1" parent="1" source="zwFqzDqDcPwq69iHsSgv-1">
          <mxGeometry width="50" height="50" relative="1" as="geometry">
            <mxPoint x="510" y="370" as="sourcePoint" />
            <mxPoint x="750" y="295" as="targetPoint" />
          </mxGeometry>
        </mxCell>
        <mxCell id="zwFqzDqDcPwq69iHsSgv-6" value="Пользователи / credentials" style="text;html=1;strokeColor=none;fillColor=none;align=center;verticalAlign=middle;whiteSpace=wrap;rounded=0;" vertex="1" parent="1">
          <mxGeometry x="570" y="260" width="160" height="30" as="geometry" />
        </mxCell>
        <mxCell id="zwFqzDqDcPwq69iHsSgv-7" value="" style="endArrow=classic;html=1;rounded=0;entryX=0.25;entryY=1;entryDx=0;entryDy=0;" edge="1" parent="1" target="zwFqzDqDcPwq69iHsSgv-1">
          <mxGeometry width="50" height="50" relative="1" as="geometry">
            <mxPoint x="310" y="470" as="sourcePoint" />
            <mxPoint x="460" y="340" as="targetPoint" />
          </mxGeometry>
        </mxCell>
        <mxCell id="zwFqzDqDcPwq69iHsSgv-8" value="Пользователь /админ" style="text;html=1;strokeColor=none;fillColor=none;align=center;verticalAlign=middle;whiteSpace=wrap;rounded=0;" vertex="1" parent="1">
          <mxGeometry x="200" y="420" width="110" height="30" as="geometry" />
        </mxCell>
        <mxCell id="zwFqzDqDcPwq69iHsSgv-9" value="" style="endArrow=classic;html=1;rounded=0;entryX=0.75;entryY=1;entryDx=0;entryDy=0;" edge="1" parent="1" target="zwFqzDqDcPwq69iHsSgv-1">
          <mxGeometry width="50" height="50" relative="1" as="geometry">
            <mxPoint x="458" y="470" as="sourcePoint" />
            <mxPoint x="460" y="340" as="targetPoint" />
          </mxGeometry>
        </mxCell>
        <mxCell id="zwFqzDqDcPwq69iHsSgv-10" value="Система" style="text;html=1;strokeColor=none;fillColor=none;align=center;verticalAlign=middle;whiteSpace=wrap;rounded=0;" vertex="1" parent="1">
          <mxGeometry x="460" y="420" width="60" height="30" as="geometry" />
        </mxCell>
        <mxCell id="zwFqzDqDcPwq69iHsSgv-11" value="" style="endArrow=classic;html=1;rounded=0;entryX=0.25;entryY=0;entryDx=0;entryDy=0;" edge="1" parent="1" target="zwFqzDqDcPwq69iHsSgv-1">
          <mxGeometry width="50" height="50" relative="1" as="geometry">
            <mxPoint x="313" y="110" as="sourcePoint" />
            <mxPoint x="420" y="200" as="targetPoint" />
          </mxGeometry>
        </mxCell>
        <mxCell id="zwFqzDqDcPwq69iHsSgv-12" value="Список пользователей / credentials" style="text;html=1;strokeColor=none;fillColor=none;align=center;verticalAlign=middle;whiteSpace=wrap;rounded=0;" vertex="1" parent="1">
          <mxGeometry x="200" y="160" width="120" height="30" as="geometry" />
        </mxCell>
        <mxCell id="zwFqzDqDcPwq69iHsSgv-13" value="" style="endArrow=classic;html=1;rounded=0;entryX=0.75;entryY=0;entryDx=0;entryDy=0;" edge="1" parent="1" target="zwFqzDqDcPwq69iHsSgv-1">
          <mxGeometry width="50" height="50" relative="1" as="geometry">
            <mxPoint x="458" y="110" as="sourcePoint" />
            <mxPoint x="420" y="200" as="targetPoint" />
          </mxGeometry>
        </mxCell>
        <mxCell id="zwFqzDqDcPwq69iHsSgv-14" value="Форма для заполнения" style="text;html=1;strokeColor=none;fillColor=none;align=center;verticalAlign=middle;whiteSpace=wrap;rounded=0;" vertex="1" parent="1">
          <mxGeometry x="470" y="160" width="60" height="30" as="geometry" />
        </mxCell>
        <mxCell id="zwFqzDqDcPwq69iHsSgv-15" value="A0" style="text;html=1;strokeColor=none;fillColor=none;align=center;verticalAlign=middle;whiteSpace=wrap;rounded=0;" vertex="1" parent="1">
          <mxGeometry x="510" y="320" width="20" height="20" as="geometry" />
        </mxCell>
        <mxCell id="zwFqzDqDcPwq69iHsSgv-16" value="" style="rounded=0;whiteSpace=wrap;html=1;" vertex="1" parent="1">
          <mxGeometry x="195" y="720" width="120" height="60" as="geometry" />
        </mxCell>
        <mxCell id="zwFqzDqDcPwq69iHsSgv-17" value="Добавление credentials/пользователей" style="text;html=1;strokeColor=none;fillColor=none;align=center;verticalAlign=middle;whiteSpace=wrap;rounded=0;" vertex="1" parent="1">
          <mxGeometry x="225" y="735" width="60" height="30" as="geometry" />
        </mxCell>
        <mxCell id="zwFqzDqDcPwq69iHsSgv-20" value="" style="rounded=0;whiteSpace=wrap;html=1;" vertex="1" parent="1">
          <mxGeometry x="195" y="860" width="120" height="60" as="geometry" />
        </mxCell>
        <mxCell id="zwFqzDqDcPwq69iHsSgv-19" value="Поиск по названию" style="text;html=1;strokeColor=none;fillColor=none;align=center;verticalAlign=middle;whiteSpace=wrap;rounded=0;" vertex="1" parent="1">
          <mxGeometry x="225" y="875" width="60" height="30" as="geometry" />
        </mxCell>
        <mxCell id="zwFqzDqDcPwq69iHsSgv-21" value="" style="endArrow=classic;html=1;rounded=0;exitX=1;exitY=0.5;exitDx=0;exitDy=0;entryX=0;entryY=0.5;entryDx=0;entryDy=0;" edge="1" parent="1" source="zwFqzDqDcPwq69iHsSgv-20" target="zwFqzDqDcPwq69iHsSgv-24">
          <mxGeometry width="50" height="50" relative="1" as="geometry">
            <mxPoint x="340" y="970" as="sourcePoint" />
            <mxPoint x="510" y="890" as="targetPoint" />
            <Array as="points">
              <mxPoint x="520" y="890" />
              <mxPoint x="520" y="820" />
            </Array>
          </mxGeometry>
        </mxCell>
        <mxCell id="zwFqzDqDcPwq69iHsSgv-22" value="Отфильтрованный список" style="text;html=1;strokeColor=none;fillColor=none;align=center;verticalAlign=middle;whiteSpace=wrap;rounded=0;" vertex="1" parent="1">
          <mxGeometry x="331" y="860" width="166" height="30" as="geometry" />
        </mxCell>
        <mxCell id="zwFqzDqDcPwq69iHsSgv-24" value="" style="rounded=0;whiteSpace=wrap;html=1;" vertex="1" parent="1">
          <mxGeometry x="560" y="790" width="120" height="60" as="geometry" />
        </mxCell>
        <mxCell id="zwFqzDqDcPwq69iHsSgv-25" value="" style="rounded=0;whiteSpace=wrap;html=1;" vertex="1" parent="1">
          <mxGeometry x="560" y="920" width="120" height="60" as="geometry" />
        </mxCell>
        <mxCell id="zwFqzDqDcPwq69iHsSgv-26" value="" style="endArrow=classic;html=1;rounded=0;entryX=0;entryY=0.5;entryDx=0;entryDy=0;exitX=1;exitY=0.5;exitDx=0;exitDy=0;" edge="1" parent="1" source="zwFqzDqDcPwq69iHsSgv-20" target="zwFqzDqDcPwq69iHsSgv-25">
          <mxGeometry width="50" height="50" relative="1" as="geometry">
            <mxPoint x="420" y="970" as="sourcePoint" />
            <mxPoint x="470" y="920" as="targetPoint" />
            <Array as="points">
              <mxPoint x="520" y="890" />
              <mxPoint x="520" y="950" />
            </Array>
          </mxGeometry>
        </mxCell>
        <mxCell id="zwFqzDqDcPwq69iHsSgv-27" value="Обновление credential/пользователя" style="text;html=1;strokeColor=none;fillColor=none;align=center;verticalAlign=middle;whiteSpace=wrap;rounded=0;" vertex="1" parent="1">
          <mxGeometry x="590" y="805" width="60" height="30" as="geometry" />
        </mxCell>
        <mxCell id="zwFqzDqDcPwq69iHsSgv-28" value="Удаление credential/пользователя" style="text;html=1;strokeColor=none;fillColor=none;align=center;verticalAlign=middle;whiteSpace=wrap;rounded=0;" vertex="1" parent="1">
          <mxGeometry x="590" y="935" width="60" height="30" as="geometry" />
        </mxCell>
        <mxCell id="zwFqzDqDcPwq69iHsSgv-29" value="" style="endArrow=classic;html=1;rounded=0;exitX=1;exitY=0.5;exitDx=0;exitDy=0;" edge="1" parent="1" source="zwFqzDqDcPwq69iHsSgv-25">
          <mxGeometry width="50" height="50" relative="1" as="geometry">
            <mxPoint x="740" y="930" as="sourcePoint" />
            <mxPoint x="1020" y="880" as="targetPoint" />
            <Array as="points">
              <mxPoint x="820" y="950" />
              <mxPoint x="820" y="880" />
            </Array>
          </mxGeometry>
        </mxCell>
        <mxCell id="zwFqzDqDcPwq69iHsSgv-30" value="" style="endArrow=classic;html=1;rounded=0;exitX=1;exitY=0.5;exitDx=0;exitDy=0;" edge="1" parent="1" source="zwFqzDqDcPwq69iHsSgv-24">
          <mxGeometry width="50" height="50" relative="1" as="geometry">
            <mxPoint x="740" y="930" as="sourcePoint" />
            <mxPoint x="1020" y="880" as="targetPoint" />
            <Array as="points">
              <mxPoint x="820" y="820" />
              <mxPoint x="820" y="880" />
            </Array>
          </mxGeometry>
        </mxCell>
        <mxCell id="zwFqzDqDcPwq69iHsSgv-31" value="" style="endArrow=classic;html=1;rounded=0;exitX=1;exitY=0.5;exitDx=0;exitDy=0;" edge="1" parent="1" source="zwFqzDqDcPwq69iHsSgv-16">
          <mxGeometry width="50" height="50" relative="1" as="geometry">
            <mxPoint x="740" y="930" as="sourcePoint" />
            <mxPoint x="1020" y="880" as="targetPoint" />
            <Array as="points">
              <mxPoint x="820" y="750" />
              <mxPoint x="820" y="780" />
              <mxPoint x="820" y="820" />
              <mxPoint x="820" y="880" />
            </Array>
          </mxGeometry>
        </mxCell>
        <mxCell id="zwFqzDqDcPwq69iHsSgv-32" value="Список пользователей / credentials" style="text;html=1;strokeColor=none;fillColor=none;align=center;verticalAlign=middle;whiteSpace=wrap;rounded=0;" vertex="1" parent="1">
          <mxGeometry x="840" y="845" width="190" height="30" as="geometry" />
        </mxCell>
        <mxCell id="zwFqzDqDcPwq69iHsSgv-33" value="" style="endArrow=classic;html=1;rounded=0;entryX=0.25;entryY=1;entryDx=0;entryDy=0;" edge="1" parent="1" target="zwFqzDqDcPwq69iHsSgv-20">
          <mxGeometry width="50" height="50" relative="1" as="geometry">
            <mxPoint x="225" y="1060" as="sourcePoint" />
            <mxPoint x="420" y="800" as="targetPoint" />
          </mxGeometry>
        </mxCell>
        <mxCell id="zwFqzDqDcPwq69iHsSgv-34" value="" style="endArrow=classic;html=1;rounded=0;entryX=0.75;entryY=1;entryDx=0;entryDy=0;" edge="1" parent="1" target="zwFqzDqDcPwq69iHsSgv-20">
          <mxGeometry width="50" height="50" relative="1" as="geometry">
            <mxPoint x="285" y="1060" as="sourcePoint" />
            <mxPoint x="420" y="800" as="targetPoint" />
          </mxGeometry>
        </mxCell>
        <mxCell id="zwFqzDqDcPwq69iHsSgv-35" value="" style="endArrow=classic;html=1;rounded=0;entryX=0.25;entryY=1;entryDx=0;entryDy=0;" edge="1" parent="1" target="zwFqzDqDcPwq69iHsSgv-16">
          <mxGeometry width="50" height="50" relative="1" as="geometry">
            <mxPoint x="225" y="980" as="sourcePoint" />
            <mxPoint x="370" y="860" as="targetPoint" />
            <Array as="points">
              <mxPoint x="160" y="980" />
              <mxPoint x="160" y="870" />
              <mxPoint x="160" y="820" />
              <mxPoint x="225" y="820" />
            </Array>
          </mxGeometry>
        </mxCell>
        <mxCell id="zwFqzDqDcPwq69iHsSgv-36" value="" style="endArrow=classic;html=1;rounded=0;entryX=0.75;entryY=1;entryDx=0;entryDy=0;" edge="1" parent="1" target="zwFqzDqDcPwq69iHsSgv-16">
          <mxGeometry width="50" height="50" relative="1" as="geometry">
            <mxPoint x="285" y="945" as="sourcePoint" />
            <mxPoint x="285" y="775" as="targetPoint" />
            <Array as="points">
              <mxPoint x="180" y="945" />
              <mxPoint x="180" y="835" />
              <mxPoint x="230" y="835" />
              <mxPoint x="285" y="835" />
            </Array>
          </mxGeometry>
        </mxCell>
        <mxCell id="zwFqzDqDcPwq69iHsSgv-37" value="Система" style="text;html=1;strokeColor=none;fillColor=none;align=center;verticalAlign=middle;whiteSpace=wrap;rounded=0;" vertex="1" parent="1">
          <mxGeometry x="285" y="1030" width="60" height="30" as="geometry" />
        </mxCell>
        <mxCell id="zwFqzDqDcPwq69iHsSgv-38" value="Пользователь / админ" style="text;html=1;strokeColor=none;fillColor=none;align=center;verticalAlign=middle;whiteSpace=wrap;rounded=0;" vertex="1" parent="1">
          <mxGeometry x="90" y="1030" width="130" height="30" as="geometry" />
        </mxCell>
        <mxCell id="zwFqzDqDcPwq69iHsSgv-39" value="" style="endArrow=classic;html=1;rounded=0;entryX=0;entryY=0.5;entryDx=0;entryDy=0;" edge="1" parent="1" target="zwFqzDqDcPwq69iHsSgv-20">
          <mxGeometry width="50" height="50" relative="1" as="geometry">
            <mxPoint x="-140" y="890" as="sourcePoint" />
            <mxPoint x="190" y="890" as="targetPoint" />
          </mxGeometry>
        </mxCell>
        <mxCell id="zwFqzDqDcPwq69iHsSgv-40" value="Запрос на взаимодействие с credentials / пользователями" style="text;html=1;strokeColor=none;fillColor=none;align=center;verticalAlign=middle;whiteSpace=wrap;rounded=0;" vertex="1" parent="1">
          <mxGeometry x="-120" y="860" width="180" height="30" as="geometry" />
        </mxCell>
        <mxCell id="zwFqzDqDcPwq69iHsSgv-41" value="" style="endArrow=classic;html=1;rounded=0;entryX=0;entryY=0.5;entryDx=0;entryDy=0;" edge="1" parent="1" target="zwFqzDqDcPwq69iHsSgv-16">
          <mxGeometry width="50" height="50" relative="1" as="geometry">
            <mxPoint x="-140" y="890" as="sourcePoint" />
            <mxPoint x="370" y="780" as="targetPoint" />
            <Array as="points">
              <mxPoint x="70" y="890" />
              <mxPoint x="70" y="750" />
            </Array>
          </mxGeometry>
        </mxCell>
        <mxCell id="zwFqzDqDcPwq69iHsSgv-43" value="" style="endArrow=classic;html=1;rounded=0;entryX=0.5;entryY=0;entryDx=0;entryDy=0;" edge="1" parent="1" target="zwFqzDqDcPwq69iHsSgv-16">
          <mxGeometry width="50" height="50" relative="1" as="geometry">
            <mxPoint x="440" y="580" as="sourcePoint" />
            <mxPoint x="370" y="710" as="targetPoint" />
            <Array as="points">
              <mxPoint x="440" y="660" />
              <mxPoint x="255" y="660" />
            </Array>
          </mxGeometry>
        </mxCell>
        <mxCell id="zwFqzDqDcPwq69iHsSgv-44" value="" style="endArrow=classic;html=1;rounded=0;entryX=0.5;entryY=0;entryDx=0;entryDy=0;" edge="1" parent="1" target="zwFqzDqDcPwq69iHsSgv-24">
          <mxGeometry width="50" height="50" relative="1" as="geometry">
            <mxPoint x="440" y="580" as="sourcePoint" />
            <mxPoint x="370" y="710" as="targetPoint" />
            <Array as="points">
              <mxPoint x="440" y="660" />
              <mxPoint x="440" y="720" />
              <mxPoint x="620" y="720" />
            </Array>
          </mxGeometry>
        </mxCell>
        <mxCell id="zwFqzDqDcPwq69iHsSgv-47" value="Форма для заполнения" style="text;html=1;strokeColor=none;fillColor=none;align=center;verticalAlign=middle;whiteSpace=wrap;rounded=0;" vertex="1" parent="1">
          <mxGeometry x="333.5" y="620" width="103" height="30" as="geometry" />
        </mxCell>
        <mxCell id="zwFqzDqDcPwq69iHsSgv-48" value="" style="endArrow=classic;html=1;rounded=0;entryX=0.75;entryY=0;entryDx=0;entryDy=0;" edge="1" parent="1" target="zwFqzDqDcPwq69iHsSgv-25">
          <mxGeometry width="50" height="50" relative="1" as="geometry">
            <mxPoint x="440" y="660" as="sourcePoint" />
            <mxPoint x="370" y="780" as="targetPoint" />
            <Array as="points">
              <mxPoint x="720" y="660" />
              <mxPoint x="720" y="880" />
              <mxPoint x="650" y="880" />
            </Array>
          </mxGeometry>
        </mxCell>
        <mxCell id="zwFqzDqDcPwq69iHsSgv-49" value="" style="endArrow=classic;html=1;rounded=0;entryX=0.75;entryY=0;entryDx=0;entryDy=0;" edge="1" parent="1">
          <mxGeometry width="50" height="50" relative="1" as="geometry">
            <mxPoint x="480" y="570" as="sourcePoint" />
            <mxPoint x="240" y="860.0000000000002" as="targetPoint" />
            <Array as="points">
              <mxPoint x="480" y="840" />
              <mxPoint x="365" y="840" />
              <mxPoint x="240" y="840" />
            </Array>
          </mxGeometry>
        </mxCell>
        <mxCell id="zwFqzDqDcPwq69iHsSgv-51" value="" style="endArrow=classic;html=1;rounded=0;entryX=0.25;entryY=0;entryDx=0;entryDy=0;" edge="1" parent="1" target="zwFqzDqDcPwq69iHsSgv-25">
          <mxGeometry width="50" height="50" relative="1" as="geometry">
            <mxPoint x="480" y="840" as="sourcePoint" />
            <mxPoint x="370" y="780" as="targetPoint" />
            <Array as="points">
              <mxPoint x="540" y="840" />
              <mxPoint x="540" y="870" />
              <mxPoint x="590" y="870" />
            </Array>
          </mxGeometry>
        </mxCell>
        <mxCell id="zwFqzDqDcPwq69iHsSgv-52" value="Список credentials / пользователей" style="text;html=1;strokeColor=none;fillColor=none;align=center;verticalAlign=middle;whiteSpace=wrap;rounded=0;" vertex="1" parent="1">
          <mxGeometry x="480" y="610" width="130" height="30" as="geometry" />
        </mxCell>
        <mxCell id="zwFqzDqDcPwq69iHsSgv-53" value="А1" style="text;html=1;strokeColor=none;fillColor=none;align=center;verticalAlign=middle;whiteSpace=wrap;rounded=0;" vertex="1" parent="1">
          <mxGeometry x="295" y="770" width="20" height="10" as="geometry" />
        </mxCell>
        <mxCell id="zwFqzDqDcPwq69iHsSgv-54" value="А2" style="text;html=1;strokeColor=none;fillColor=none;align=center;verticalAlign=middle;whiteSpace=wrap;rounded=0;" vertex="1" parent="1">
          <mxGeometry x="290" y="910" width="30" height="10" as="geometry" />
        </mxCell>
        <mxCell id="zwFqzDqDcPwq69iHsSgv-55" value="А3" style="text;html=1;strokeColor=none;fillColor=none;align=center;verticalAlign=middle;whiteSpace=wrap;rounded=0;" vertex="1" parent="1">
          <mxGeometry x="660" y="840" width="20" height="10" as="geometry" />
        </mxCell>
        <mxCell id="zwFqzDqDcPwq69iHsSgv-56" value="А4" style="text;html=1;strokeColor=none;fillColor=none;align=center;verticalAlign=middle;whiteSpace=wrap;rounded=0;" vertex="1" parent="1">
          <mxGeometry x="665" y="970" width="15" height="10" as="geometry" />
        </mxCell>
        <mxCell id="zwFqzDqDcPwq69iHsSgv-57" value="" style="endArrow=none;html=1;rounded=0;entryX=0.215;entryY=0.02;entryDx=0;entryDy=0;entryPerimeter=0;exitX=0;exitY=0.25;exitDx=0;exitDy=0;" edge="1" parent="1" source="zwFqzDqDcPwq69iHsSgv-20" target="zwFqzDqDcPwq69iHsSgv-20">
          <mxGeometry width="50" height="50" relative="1" as="geometry">
            <mxPoint x="300" y="880" as="sourcePoint" />
            <mxPoint x="350" y="830" as="targetPoint" />
          </mxGeometry>
        </mxCell>
        <mxCell id="zwFqzDqDcPwq69iHsSgv-58" value="" style="endArrow=none;html=1;rounded=0;entryX=0.25;entryY=0;entryDx=0;entryDy=0;exitX=0;exitY=0.25;exitDx=0;exitDy=0;" edge="1" parent="1" source="zwFqzDqDcPwq69iHsSgv-25" target="zwFqzDqDcPwq69iHsSgv-25">
          <mxGeometry width="50" height="50" relative="1" as="geometry">
            <mxPoint x="420" y="890" as="sourcePoint" />
            <mxPoint x="470" y="840" as="targetPoint" />
          </mxGeometry>
        </mxCell>
        <mxCell id="zwFqzDqDcPwq69iHsSgv-61" value="" style="rounded=0;whiteSpace=wrap;html=1;" vertex="1" parent="1">
          <mxGeometry x="110" y="1290" width="130" height="60" as="geometry" />
        </mxCell>
        <mxCell id="zwFqzDqDcPwq69iHsSgv-62" value="Введение информации" style="text;html=1;strokeColor=none;fillColor=none;align=center;verticalAlign=middle;whiteSpace=wrap;rounded=0;" vertex="1" parent="1">
          <mxGeometry x="117.5" y="1305" width="115" height="30" as="geometry" />
        </mxCell>
        <mxCell id="zwFqzDqDcPwq69iHsSgv-63" value="" style="rounded=0;whiteSpace=wrap;html=1;" vertex="1" parent="1">
          <mxGeometry x="325" y="1290" width="120" height="60" as="geometry" />
        </mxCell>
        <mxCell id="zwFqzDqDcPwq69iHsSgv-65" value="Шифрование" style="text;html=1;strokeColor=none;fillColor=none;align=center;verticalAlign=middle;whiteSpace=wrap;rounded=0;" vertex="1" parent="1">
          <mxGeometry x="345" y="1305" width="80" height="30" as="geometry" />
        </mxCell>
        <mxCell id="zwFqzDqDcPwq69iHsSgv-67" value="" style="rounded=0;whiteSpace=wrap;html=1;" vertex="1" parent="1">
          <mxGeometry x="535" y="1290" width="120" height="60" as="geometry" />
        </mxCell>
        <mxCell id="zwFqzDqDcPwq69iHsSgv-68" value="Добавление записи в базу" style="text;html=1;strokeColor=none;fillColor=none;align=center;verticalAlign=middle;whiteSpace=wrap;rounded=0;" vertex="1" parent="1">
          <mxGeometry x="540" y="1305" width="110" height="30" as="geometry" />
        </mxCell>
        <mxCell id="zwFqzDqDcPwq69iHsSgv-71" value="" style="endArrow=classic;html=1;rounded=0;entryX=0;entryY=0.5;entryDx=0;entryDy=0;exitX=1;exitY=0.5;exitDx=0;exitDy=0;" edge="1" parent="1" source="zwFqzDqDcPwq69iHsSgv-63" target="zwFqzDqDcPwq69iHsSgv-67">
          <mxGeometry width="50" height="50" relative="1" as="geometry">
            <mxPoint x="480" y="1410" as="sourcePoint" />
            <mxPoint x="530" y="1360" as="targetPoint" />
          </mxGeometry>
        </mxCell>
        <mxCell id="zwFqzDqDcPwq69iHsSgv-72" value="" style="endArrow=classic;html=1;rounded=0;entryX=0;entryY=0.5;entryDx=0;entryDy=0;exitX=1;exitY=0.5;exitDx=0;exitDy=0;" edge="1" parent="1" source="zwFqzDqDcPwq69iHsSgv-61" target="zwFqzDqDcPwq69iHsSgv-63">
          <mxGeometry width="50" height="50" relative="1" as="geometry">
            <mxPoint x="480" y="1410" as="sourcePoint" />
            <mxPoint x="530" y="1360" as="targetPoint" />
          </mxGeometry>
        </mxCell>
        <mxCell id="zwFqzDqDcPwq69iHsSgv-73" value="" style="endArrow=classic;html=1;rounded=0;entryX=0.75;entryY=1;entryDx=0;entryDy=0;" edge="1" parent="1">
          <mxGeometry width="50" height="50" relative="1" as="geometry">
            <mxPoint x="410.5" y="1440" as="sourcePoint" />
            <mxPoint x="410" y="1350" as="targetPoint" />
          </mxGeometry>
        </mxCell>
        <mxCell id="zwFqzDqDcPwq69iHsSgv-74" value="Система" style="text;html=1;strokeColor=none;fillColor=none;align=center;verticalAlign=middle;whiteSpace=wrap;rounded=0;" vertex="1" parent="1">
          <mxGeometry x="410" y="1410" width="60" height="30" as="geometry" />
        </mxCell>
        <mxCell id="zwFqzDqDcPwq69iHsSgv-75" value="" style="endArrow=classic;html=1;rounded=0;entryX=0.25;entryY=1;entryDx=0;entryDy=0;" edge="1" parent="1" target="zwFqzDqDcPwq69iHsSgv-61">
          <mxGeometry width="50" height="50" relative="1" as="geometry">
            <mxPoint x="143" y="1440" as="sourcePoint" />
            <mxPoint x="350" y="1350" as="targetPoint" />
          </mxGeometry>
        </mxCell>
        <mxCell id="zwFqzDqDcPwq69iHsSgv-76" value="Пользователь / admin" style="text;html=1;strokeColor=none;fillColor=none;align=center;verticalAlign=middle;whiteSpace=wrap;rounded=0;" vertex="1" parent="1">
          <mxGeometry x="40" y="1410" width="110" height="30" as="geometry" />
        </mxCell>
        <mxCell id="zwFqzDqDcPwq69iHsSgv-77" value="" style="endArrow=classic;html=1;rounded=0;entryX=0.75;entryY=1;entryDx=0;entryDy=0;" edge="1" parent="1" target="zwFqzDqDcPwq69iHsSgv-67">
          <mxGeometry width="50" height="50" relative="1" as="geometry">
            <mxPoint x="410" y="1400" as="sourcePoint" />
            <mxPoint x="350" y="1350" as="targetPoint" />
            <Array as="points">
              <mxPoint x="625" y="1400" />
            </Array>
          </mxGeometry>
        </mxCell>
        <mxCell id="zwFqzDqDcPwq69iHsSgv-78" value="" style="endArrow=classic;html=1;rounded=0;entryX=0;entryY=0.5;entryDx=0;entryDy=0;" edge="1" parent="1" target="zwFqzDqDcPwq69iHsSgv-61">
          <mxGeometry width="50" height="50" relative="1" as="geometry">
            <mxPoint x="-50" y="1320" as="sourcePoint" />
            <mxPoint x="350" y="1350" as="targetPoint" />
          </mxGeometry>
        </mxCell>
        <mxCell id="zwFqzDqDcPwq69iHsSgv-79" value="Добавление credentials/пользователей" style="text;html=1;strokeColor=none;fillColor=none;align=center;verticalAlign=middle;whiteSpace=wrap;rounded=0;" vertex="1" parent="1">
          <mxGeometry x="-50" y="1290" width="150" height="30" as="geometry" />
        </mxCell>
        <mxCell id="zwFqzDqDcPwq69iHsSgv-80" value="" style="endArrow=classic;html=1;rounded=0;entryX=0.5;entryY=0;entryDx=0;entryDy=0;" edge="1" parent="1" target="zwFqzDqDcPwq69iHsSgv-61">
          <mxGeometry width="50" height="50" relative="1" as="geometry">
            <mxPoint x="175" y="1200" as="sourcePoint" />
            <mxPoint x="350" y="1320" as="targetPoint" />
          </mxGeometry>
        </mxCell>
        <mxCell id="zwFqzDqDcPwq69iHsSgv-81" value="Форма для заполнения данными" style="text;html=1;strokeColor=none;fillColor=none;align=center;verticalAlign=middle;whiteSpace=wrap;rounded=0;" vertex="1" parent="1">
          <mxGeometry x="180" y="1220" width="130" height="30" as="geometry" />
        </mxCell>
        <mxCell id="zwFqzDqDcPwq69iHsSgv-82" value="" style="endArrow=classic;html=1;rounded=0;exitX=1;exitY=0.5;exitDx=0;exitDy=0;" edge="1" parent="1" source="zwFqzDqDcPwq69iHsSgv-67">
          <mxGeometry width="50" height="50" relative="1" as="geometry">
            <mxPoint x="600" y="1380" as="sourcePoint" />
            <mxPoint x="850" y="1320" as="targetPoint" />
          </mxGeometry>
        </mxCell>
        <mxCell id="zwFqzDqDcPwq69iHsSgv-83" value="Credential / пользователь" style="text;html=1;strokeColor=none;fillColor=none;align=center;verticalAlign=middle;whiteSpace=wrap;rounded=0;" vertex="1" parent="1">
          <mxGeometry x="680" y="1290" width="150" height="30" as="geometry" />
        </mxCell>
        <mxCell id="zwFqzDqDcPwq69iHsSgv-85" value="Данные&amp;nbsp;&lt;br&gt;" style="text;html=1;strokeColor=none;fillColor=none;align=center;verticalAlign=middle;whiteSpace=wrap;rounded=0;" vertex="1" parent="1">
          <mxGeometry x="250" y="1295" width="60" height="20" as="geometry" />
        </mxCell>
        <mxCell id="zwFqzDqDcPwq69iHsSgv-106" value="" style="endArrow=none;html=1;rounded=0;entryX=0.25;entryY=0;entryDx=0;entryDy=0;exitX=0;exitY=0.25;exitDx=0;exitDy=0;" edge="1" parent="1" source="zwFqzDqDcPwq69iHsSgv-61" target="zwFqzDqDcPwq69iHsSgv-61">
          <mxGeometry width="50" height="50" relative="1" as="geometry">
            <mxPoint x="230" y="1300" as="sourcePoint" />
            <mxPoint x="280" y="1250" as="targetPoint" />
          </mxGeometry>
        </mxCell>
        <mxCell id="zwFqzDqDcPwq69iHsSgv-107" value="" style="endArrow=none;html=1;rounded=0;entryX=0.25;entryY=0;entryDx=0;entryDy=0;exitX=0;exitY=0.25;exitDx=0;exitDy=0;" edge="1" parent="1" source="zwFqzDqDcPwq69iHsSgv-63" target="zwFqzDqDcPwq69iHsSgv-63">
          <mxGeometry width="50" height="50" relative="1" as="geometry">
            <mxPoint x="230" y="1300" as="sourcePoint" />
            <mxPoint x="280" y="1250" as="targetPoint" />
          </mxGeometry>
        </mxCell>
        <mxCell id="zwFqzDqDcPwq69iHsSgv-108" value="" style="endArrow=none;html=1;rounded=0;entryX=0.25;entryY=0;entryDx=0;entryDy=0;exitX=0;exitY=0.25;exitDx=0;exitDy=0;" edge="1" parent="1" source="zwFqzDqDcPwq69iHsSgv-67" target="zwFqzDqDcPwq69iHsSgv-67">
          <mxGeometry width="50" height="50" relative="1" as="geometry">
            <mxPoint x="390" y="1330" as="sourcePoint" />
            <mxPoint x="440" y="1280" as="targetPoint" />
          </mxGeometry>
        </mxCell>
        <mxCell id="zwFqzDqDcPwq69iHsSgv-109" value="" style="rounded=0;whiteSpace=wrap;html=1;" vertex="1" parent="1">
          <mxGeometry x="115" y="1620" width="120" height="60" as="geometry" />
        </mxCell>
        <mxCell id="zwFqzDqDcPwq69iHsSgv-110" value="Дешифрование" style="text;html=1;strokeColor=none;fillColor=none;align=center;verticalAlign=middle;whiteSpace=wrap;rounded=0;" vertex="1" parent="1">
          <mxGeometry x="128.75" y="1635" width="92.5" height="30" as="geometry" />
        </mxCell>
        <mxCell id="zwFqzDqDcPwq69iHsSgv-111" value="А11" style="text;html=1;strokeColor=none;fillColor=none;align=center;verticalAlign=middle;whiteSpace=wrap;rounded=0;" vertex="1" parent="1">
          <mxGeometry x="210" y="1340" width="30" height="10" as="geometry" />
        </mxCell>
        <mxCell id="zwFqzDqDcPwq69iHsSgv-112" value="А12" style="text;html=1;strokeColor=none;fillColor=none;align=center;verticalAlign=middle;whiteSpace=wrap;rounded=0;" vertex="1" parent="1">
          <mxGeometry x="425" y="1340" width="20" height="10" as="geometry" />
        </mxCell>
        <mxCell id="zwFqzDqDcPwq69iHsSgv-114" value="А13" style="text;html=1;strokeColor=none;fillColor=none;align=center;verticalAlign=middle;whiteSpace=wrap;rounded=0;" vertex="1" parent="1">
          <mxGeometry x="640" y="1340" width="10" height="10" as="geometry" />
        </mxCell>
        <mxCell id="zwFqzDqDcPwq69iHsSgv-115" value="" style="rounded=0;whiteSpace=wrap;html=1;" vertex="1" parent="1">
          <mxGeometry x="320" y="1620" width="120" height="60" as="geometry" />
        </mxCell>
        <mxCell id="zwFqzDqDcPwq69iHsSgv-116" value="Изменение данных" style="text;html=1;strokeColor=none;fillColor=none;align=center;verticalAlign=middle;whiteSpace=wrap;rounded=0;" vertex="1" parent="1">
          <mxGeometry x="332.5" y="1635" width="95" height="30" as="geometry" />
        </mxCell>
        <mxCell id="zwFqzDqDcPwq69iHsSgv-117" value="Шифрование" style="rounded=0;whiteSpace=wrap;html=1;" vertex="1" parent="1">
          <mxGeometry x="520" y="1620" width="120" height="60" as="geometry" />
        </mxCell>
        <mxCell id="zwFqzDqDcPwq69iHsSgv-118" value="Обновление записи в базе" style="rounded=0;whiteSpace=wrap;html=1;" vertex="1" parent="1">
          <mxGeometry x="720" y="1620" width="120" height="60" as="geometry" />
        </mxCell>
        <mxCell id="zwFqzDqDcPwq69iHsSgv-119" value="" style="endArrow=classic;html=1;rounded=0;exitX=1;exitY=0.5;exitDx=0;exitDy=0;" edge="1" parent="1" source="zwFqzDqDcPwq69iHsSgv-109">
          <mxGeometry width="50" height="50" relative="1" as="geometry">
            <mxPoint x="260" y="1700" as="sourcePoint" />
            <mxPoint x="320" y="1650" as="targetPoint" />
          </mxGeometry>
        </mxCell>
        <mxCell id="zwFqzDqDcPwq69iHsSgv-121" value="Читабельные данные" style="text;html=1;strokeColor=none;fillColor=none;align=center;verticalAlign=middle;whiteSpace=wrap;rounded=0;" vertex="1" parent="1">
          <mxGeometry x="250" y="1620" width="60" height="30" as="geometry" />
        </mxCell>
        <mxCell id="zwFqzDqDcPwq69iHsSgv-122" value="" style="endArrow=classic;html=1;rounded=0;exitX=1;exitY=0.5;exitDx=0;exitDy=0;" edge="1" parent="1" source="zwFqzDqDcPwq69iHsSgv-115">
          <mxGeometry width="50" height="50" relative="1" as="geometry">
            <mxPoint x="480" y="1690" as="sourcePoint" />
            <mxPoint x="520" y="1650" as="targetPoint" />
          </mxGeometry>
        </mxCell>
        <mxCell id="zwFqzDqDcPwq69iHsSgv-123" value="" style="endArrow=classic;html=1;rounded=0;entryX=0;entryY=0.5;entryDx=0;entryDy=0;exitX=1;exitY=0.5;exitDx=0;exitDy=0;" edge="1" parent="1" source="zwFqzDqDcPwq69iHsSgv-117" target="zwFqzDqDcPwq69iHsSgv-118">
          <mxGeometry width="50" height="50" relative="1" as="geometry">
            <mxPoint x="480" y="1690" as="sourcePoint" />
            <mxPoint x="530" y="1640" as="targetPoint" />
          </mxGeometry>
        </mxCell>
        <mxCell id="zwFqzDqDcPwq69iHsSgv-124" value="" style="endArrow=classic;html=1;rounded=0;exitX=1;exitY=0.5;exitDx=0;exitDy=0;" edge="1" parent="1" source="zwFqzDqDcPwq69iHsSgv-118">
          <mxGeometry width="50" height="50" relative="1" as="geometry">
            <mxPoint x="480" y="1690" as="sourcePoint" />
            <mxPoint x="970" y="1650" as="targetPoint" />
          </mxGeometry>
        </mxCell>
        <mxCell id="zwFqzDqDcPwq69iHsSgv-125" value="Пользователь / credential" style="text;html=1;strokeColor=none;fillColor=none;align=center;verticalAlign=middle;whiteSpace=wrap;rounded=0;" vertex="1" parent="1">
          <mxGeometry x="850" y="1620" width="100" height="30" as="geometry" />
        </mxCell>
        <mxCell id="zwFqzDqDcPwq69iHsSgv-126" value="" style="endArrow=classic;html=1;rounded=0;entryX=0.75;entryY=1;entryDx=0;entryDy=0;" edge="1" parent="1" target="zwFqzDqDcPwq69iHsSgv-109">
          <mxGeometry width="50" height="50" relative="1" as="geometry">
            <mxPoint x="205" y="1830" as="sourcePoint" />
            <mxPoint x="340" y="1640" as="targetPoint" />
            <Array as="points">
              <mxPoint x="205" y="1810" />
            </Array>
          </mxGeometry>
        </mxCell>
        <mxCell id="zwFqzDqDcPwq69iHsSgv-127" value="Cистема" style="text;html=1;strokeColor=none;fillColor=none;align=center;verticalAlign=middle;whiteSpace=wrap;rounded=0;" vertex="1" parent="1">
          <mxGeometry x="145" y="1730" width="60" height="30" as="geometry" />
        </mxCell>
        <mxCell id="zwFqzDqDcPwq69iHsSgv-128" value="" style="endArrow=classic;html=1;rounded=0;exitX=1;exitY=1;exitDx=0;exitDy=0;entryX=0.75;entryY=1;entryDx=0;entryDy=0;" edge="1" parent="1" source="zwFqzDqDcPwq69iHsSgv-127" target="zwFqzDqDcPwq69iHsSgv-117">
          <mxGeometry width="50" height="50" relative="1" as="geometry">
            <mxPoint x="510" y="1710" as="sourcePoint" />
            <mxPoint x="560" y="1660" as="targetPoint" />
            <Array as="points">
              <mxPoint x="610" y="1760" />
            </Array>
          </mxGeometry>
        </mxCell>
        <mxCell id="zwFqzDqDcPwq69iHsSgv-129" value="" style="endArrow=classic;html=1;rounded=0;entryX=0.75;entryY=1;entryDx=0;entryDy=0;" edge="1" parent="1" target="zwFqzDqDcPwq69iHsSgv-118">
          <mxGeometry width="50" height="50" relative="1" as="geometry">
            <mxPoint x="610" y="1760" as="sourcePoint" />
            <mxPoint x="560" y="1660" as="targetPoint" />
            <Array as="points">
              <mxPoint x="810" y="1760" />
            </Array>
          </mxGeometry>
        </mxCell>
        <mxCell id="zwFqzDqDcPwq69iHsSgv-130" value="" style="endArrow=classic;html=1;rounded=0;" edge="1" parent="1">
          <mxGeometry width="50" height="50" relative="1" as="geometry">
            <mxPoint x="375.82" y="1820" as="sourcePoint" />
            <mxPoint x="345" y="1680" as="targetPoint" />
            <Array as="points">
              <mxPoint x="376" y="1780" />
              <mxPoint x="345" y="1780" />
            </Array>
          </mxGeometry>
        </mxCell>
        <mxCell id="zwFqzDqDcPwq69iHsSgv-131" value="Пользователь / админ" style="text;html=1;strokeColor=none;fillColor=none;align=center;verticalAlign=middle;whiteSpace=wrap;rounded=0;" vertex="1" parent="1">
          <mxGeometry x="377.5" y="1790" width="92.5" height="30" as="geometry" />
        </mxCell>
        <mxCell id="zwFqzDqDcPwq69iHsSgv-132" value="" style="endArrow=classic;html=1;rounded=0;entryX=0;entryY=0.5;entryDx=0;entryDy=0;" edge="1" parent="1" target="zwFqzDqDcPwq69iHsSgv-109">
          <mxGeometry width="50" height="50" relative="1" as="geometry">
            <mxPoint x="-40" y="1650" as="sourcePoint" />
            <mxPoint x="160" y="1600" as="targetPoint" />
          </mxGeometry>
        </mxCell>
        <mxCell id="zwFqzDqDcPwq69iHsSgv-133" value="Элемент списка" style="text;html=1;strokeColor=none;fillColor=none;align=center;verticalAlign=middle;whiteSpace=wrap;rounded=0;" vertex="1" parent="1">
          <mxGeometry x="-30" y="1625" width="110" height="20" as="geometry" />
        </mxCell>
        <mxCell id="zwFqzDqDcPwq69iHsSgv-135" value="" style="endArrow=classic;html=1;rounded=0;entryX=0.5;entryY=0;entryDx=0;entryDy=0;" edge="1" parent="1" target="zwFqzDqDcPwq69iHsSgv-109">
          <mxGeometry width="50" height="50" relative="1" as="geometry">
            <mxPoint x="175" y="1520" as="sourcePoint" />
            <mxPoint x="350" y="1590" as="targetPoint" />
          </mxGeometry>
        </mxCell>
        <mxCell id="zwFqzDqDcPwq69iHsSgv-136" value="Форма для заполнения данными" style="text;html=1;strokeColor=none;fillColor=none;align=center;verticalAlign=middle;whiteSpace=wrap;rounded=0;" vertex="1" parent="1">
          <mxGeometry x="180" y="1540" width="130" height="30" as="geometry" />
        </mxCell>
        <mxCell id="zwFqzDqDcPwq69iHsSgv-141" value="" style="endArrow=none;html=1;rounded=0;entryX=0.131;entryY=-0.006;entryDx=0;entryDy=0;entryPerimeter=0;exitX=0;exitY=0.25;exitDx=0;exitDy=0;" edge="1" parent="1" source="zwFqzDqDcPwq69iHsSgv-109" target="zwFqzDqDcPwq69iHsSgv-109">
          <mxGeometry width="50" height="50" relative="1" as="geometry">
            <mxPoint x="350" y="1720" as="sourcePoint" />
            <mxPoint x="400" y="1670" as="targetPoint" />
          </mxGeometry>
        </mxCell>
        <mxCell id="zwFqzDqDcPwq69iHsSgv-142" value="" style="endArrow=none;html=1;rounded=0;entryX=0.139;entryY=0.028;entryDx=0;entryDy=0;entryPerimeter=0;exitX=0;exitY=0.25;exitDx=0;exitDy=0;" edge="1" parent="1" source="zwFqzDqDcPwq69iHsSgv-115" target="zwFqzDqDcPwq69iHsSgv-115">
          <mxGeometry width="50" height="50" relative="1" as="geometry">
            <mxPoint x="350" y="1720" as="sourcePoint" />
            <mxPoint x="400" y="1670" as="targetPoint" />
          </mxGeometry>
        </mxCell>
        <mxCell id="zwFqzDqDcPwq69iHsSgv-143" value="" style="endArrow=none;html=1;rounded=0;entryX=0.25;entryY=0;entryDx=0;entryDy=0;exitX=0;exitY=0.25;exitDx=0;exitDy=0;" edge="1" parent="1" source="zwFqzDqDcPwq69iHsSgv-117" target="zwFqzDqDcPwq69iHsSgv-117">
          <mxGeometry width="50" height="50" relative="1" as="geometry">
            <mxPoint x="350" y="1720" as="sourcePoint" />
            <mxPoint x="400" y="1670" as="targetPoint" />
          </mxGeometry>
        </mxCell>
        <mxCell id="zwFqzDqDcPwq69iHsSgv-144" value="" style="endArrow=none;html=1;rounded=0;entryX=0.25;entryY=0;entryDx=0;entryDy=0;exitX=0;exitY=0.25;exitDx=0;exitDy=0;" edge="1" parent="1" source="zwFqzDqDcPwq69iHsSgv-118" target="zwFqzDqDcPwq69iHsSgv-118">
          <mxGeometry width="50" height="50" relative="1" as="geometry">
            <mxPoint x="350" y="1720" as="sourcePoint" />
            <mxPoint x="400" y="1670" as="targetPoint" />
          </mxGeometry>
        </mxCell>
        <mxCell id="zwFqzDqDcPwq69iHsSgv-145" value="А31" style="text;html=1;strokeColor=none;fillColor=none;align=center;verticalAlign=middle;whiteSpace=wrap;rounded=0;" vertex="1" parent="1">
          <mxGeometry x="200" y="1670" width="40" height="10" as="geometry" />
        </mxCell>
        <mxCell id="zwFqzDqDcPwq69iHsSgv-146" value="А32" style="text;html=1;strokeColor=none;fillColor=none;align=center;verticalAlign=middle;whiteSpace=wrap;rounded=0;" vertex="1" parent="1">
          <mxGeometry x="420" y="1670" width="20" height="10" as="geometry" />
        </mxCell>
        <mxCell id="zwFqzDqDcPwq69iHsSgv-147" value="А33" style="text;html=1;strokeColor=none;fillColor=none;align=center;verticalAlign=middle;whiteSpace=wrap;rounded=0;" vertex="1" parent="1">
          <mxGeometry x="620" y="1670" width="20" height="10" as="geometry" />
        </mxCell>
        <mxCell id="zwFqzDqDcPwq69iHsSgv-148" value="А34" style="text;html=1;strokeColor=none;fillColor=none;align=center;verticalAlign=middle;whiteSpace=wrap;rounded=0;" vertex="1" parent="1">
          <mxGeometry x="820" y="1670" width="20" height="10" as="geometry" />
        </mxCell>
      </root>
    </mxGraphModel>
  </diagram>
</mxfile>
